<svg id="Layer_1" data-name="Layer 1" xmlns="http://www.w3.org/2000/svg" viewBox="0 0 129.57 148.63"><defs><style>.cls-1{fill:#202020;}.cls-2{fill:#055188;}.cls-3{fill:#f39523;}</style></defs><path class="cls-1" d="M276.59,391c.3-3.33,2.78-9.2,4.56-15.24,6.2-21.05,12.6-42.05,18.92-63.07,3.25-10.81,13.28-16.27,24.09-13.05s21.82,6.55,32.72,9.86c11.17,3.4,16.42,13.25,13.05,24.46q-11.32,37.73-22.67,75.45c-3.32,11-13.1,16.37-24.21,13.1s-22.31-6.62-33.44-10C281.27,409.9,275.91,402.32,276.59,391Zm86.91-63.42a11,11,0,0,0-8.2-10.67q-16.8-5.1-33.65-10.11c-6.46-1.93-12.24,1.2-14.22,7.74q-9.71,32.09-19.33,64.2c-2.36,7.86.57,13.36,8.42,15.74q15.87,4.78,31.76,9.48c7.44,2.21,13-.82,15.24-8.25q9.56-31.87,19.14-63.74A14,14,0,0,0,363.5,327.57Zm-49.34,85.91a10.72,10.72,0,0,0,1.5,0c1.3-.19,2.85-.23,3.29-1.75s-.81-2.43-1.86-3.21a22.41,22.41,0,0,0-13.27-4.31c-1.56,0-3.69-.07-4.17,1.91-.43,1.77,1.27,2.75,2.57,3.61A23.59,23.59,0,0,0,314.16,413.48Z" transform="translate(-249.7 -298.71)"/><path class="cls-2" d="M362.19,368.18a55.78,55.78,0,0,1,9.35,11.07c8.92,14.31,10.86,29.05,1.85,44-6.25,10.38-16,16.56-27.27,20.25-18.84,6.13-37.42,4.67-55.66-2.54-2.16-.85-3.08-.46-3.88,1.49a39.63,39.63,0,0,1-1.91,3.56L268,422.24l30.07-1.6c0,.34.08.61,0,.79-2,4.06-2,4.08,2.27,5.49,14.81,4.91,29.6,5.4,44.09-1,10.06-4.45,17.44-11.56,19.85-22.79,1.65-7.69,0-14.88-3.93-21.55a5.43,5.43,0,0,1-.69-5.09C360.56,373.87,361.28,371.15,362.19,368.18Z" transform="translate(-249.7 -298.71)"/><path class="cls-3" d="M280.46,416.13l-20.95,1c-1,.05-1.43-.69-1.89-1.39-7.47-11.35-10.09-23.61-6-36.71a39,39,0,0,1,12.95-18.48c6-4.92,12.84-8,20.06-10.53A2,2,0,0,1,286,350c.57.31.1.89,0,1.33-.85,3-1.75,6-2.58,9.05-.23.83-.88,1.14-1.51,1.54-5.35,3.47-9.9,7.68-12.78,13.51-4.51,9.12-3.79,18.1.66,27a39.14,39.14,0,0,0,8.87,11.54A20.5,20.5,0,0,1,280.46,416.13Z" transform="translate(-249.7 -298.71)"/></svg>